<?xml version="1.0" standalone="no"?>
<svg xmlns:xlink="http://www.w3.org/1999/xlink" id="wave" style="transform:rotate(180deg); transition: 0.3s" viewBox="0 0 1440 110" version="1.1" xmlns="http://www.w3.org/2000/svg"><defs><linearGradient id="sw-gradient-0" x1="0" x2="0" y1="1" y2="0"><stop stop-color="rgba(0, 0, 0, 1)" offset="0%"/><stop stop-color="rgba(0, 0, 0, 1)" offset="100%"/></linearGradient></defs><path style="transform:translate(0, 0px); opacity:1" fill="url(#sw-gradient-0)" d="M0,0L84.7,55L169.4,77L254.1,11L338.8,55L423.5,77L508.2,22L592.9,0L677.6,99L762.4,0L847.1,0L931.8,33L1016.5,11L1101.2,0L1185.9,44L1270.6,55L1355.3,0L1440,88L1524.7,11L1609.4,44L1694.1,33L1778.8,33L1863.5,99L1948.2,22L2032.9,66L2032.9,110L1948.2,110L1863.5,110L1778.8,110L1694.1,110L1609.4,110L1524.7,110L1440,110L1355.3,110L1270.6,110L1185.9,110L1101.2,110L1016.5,110L931.8,110L847.1,110L762.4,110L677.6,110L592.9,110L508.2,110L423.5,110L338.8,110L254.1,110L169.4,110L84.7,110L0,110Z"/></svg>