<?xml version="1.0" standalone="no"?>
<svg xmlns:xlink="http://www.w3.org/1999/xlink" id="wave" style="transform:rotate(180deg); transition: 0.3s" viewBox="0 0 1440 370" version="1.1" xmlns="http://www.w3.org/2000/svg"><defs><linearGradient id="sw-gradient-0" x1="0" x2="0" y1="1" y2="0"><stop stop-color="rgba(67, 59, 56, 1)" offset="0%"/><stop stop-color="rgba(141, 207, 252, 1)" offset="100%"/></linearGradient></defs><path style="transform:translate(0, 0px); opacity:1" fill="url(#sw-gradient-0)" d="M0,222L34.3,209.7C68.6,197,137,173,206,191.2C274.3,210,343,271,411,302.2C480,333,549,333,617,308.3C685.7,284,754,234,823,191.2C891.4,148,960,111,1029,117.2C1097.1,123,1166,173,1234,197.3C1302.9,222,1371,222,1440,197.3C1508.6,173,1577,123,1646,117.2C1714.3,111,1783,148,1851,172.7C1920,197,1989,210,2057,234.3C2125.7,259,2194,296,2263,265.2C2331.4,234,2400,136,2469,98.7C2537.1,62,2606,86,2674,117.2C2742.9,148,2811,185,2880,172.7C2948.6,160,3017,99,3086,80.2C3154.3,62,3223,86,3291,135.7C3360,185,3429,259,3497,265.2C3565.7,271,3634,210,3703,191.2C3771.4,173,3840,197,3909,185C3977.1,173,4046,123,4114,117.2C4182.9,111,4251,148,4320,172.7C4388.6,197,4457,210,4526,209.7C4594.3,210,4663,197,4731,209.7C4800,222,4869,259,4903,277.5L4937.1,296L4937.1,370L4902.9,370C4868.6,370,4800,370,4731,370C4662.9,370,4594,370,4526,370C4457.1,370,4389,370,4320,370C4251.4,370,4183,370,4114,370C4045.7,370,3977,370,3909,370C3840,370,3771,370,3703,370C3634.3,370,3566,370,3497,370C3428.6,370,3360,370,3291,370C3222.9,370,3154,370,3086,370C3017.1,370,2949,370,2880,370C2811.4,370,2743,370,2674,370C2605.7,370,2537,370,2469,370C2400,370,2331,370,2263,370C2194.3,370,2126,370,2057,370C1988.6,370,1920,370,1851,370C1782.9,370,1714,370,1646,370C1577.1,370,1509,370,1440,370C1371.4,370,1303,370,1234,370C1165.7,370,1097,370,1029,370C960,370,891,370,823,370C754.3,370,686,370,617,370C548.6,370,480,370,411,370C342.9,370,274,370,206,370C137.1,370,69,370,34,370L0,370Z"/></svg>