<?xml version="1.0" standalone="no"?>
<svg xmlns:xlink="http://www.w3.org/1999/xlink" id="wave" style="transform:rotate(180deg); transition: 0.3s" viewBox="0 0 1440 270" version="1.1" xmlns="http://www.w3.org/2000/svg"><defs><linearGradient id="sw-gradient-0" x1="0" x2="0" y1="1" y2="0"><stop stop-color="rgba(141, 207, 252, 1)" offset="0%"/><stop stop-color="rgba(60, 49, 39, 1)" offset="100%"/></linearGradient></defs><path style="transform:translate(0, 0px); opacity:1" fill="url(#sw-gradient-0)" d="M0,216L160,27L320,216L480,27L640,81L800,216L960,27L1120,135L1280,27L1440,216L1600,135L1760,108L1920,27L2080,108L2240,81L2400,243L2560,189L2720,135L2880,27L3040,243L3200,162L3360,243L3520,81L3680,135L3840,216L3840,270L3680,270L3520,270L3360,270L3200,270L3040,270L2880,270L2720,270L2560,270L2400,270L2240,270L2080,270L1920,270L1760,270L1600,270L1440,270L1280,270L1120,270L960,270L800,270L640,270L480,270L320,270L160,270L0,270Z"/></svg>